# Blender v2.82 (sub 7) OBJ File: ''
# www.blender.org
mtllib base.mtl
o Cube
v 1.000000 -0.159993 -1.000000
v 1.000000 -0.159993 1.000000
v -1.000000 -0.159993 -1.000000
v -1.000000 -0.159993 1.000000
v 0.797128 0.159993 -0.797128
v 1.000000 0.127535 -1.000000
v 0.797128 0.159993 0.797128
v 1.000000 0.127535 1.000000
v -0.797128 0.159993 -0.797128
v -1.000000 0.127535 -1.000000
v -0.797128 0.159993 0.797128
v -1.000000 0.127535 1.000000
vt 0.375000 0.750000
vt 0.599641 0.750000
vt 0.599641 1.000000
vt 0.375000 1.000000
vt 0.375000 0.000000
vt 0.599641 0.000000
vt 0.599641 0.250000
vt 0.375000 0.250000
vt 0.125000 0.500000
vt 0.375000 0.500000
vt 0.125000 0.750000
vt 0.650359 0.525359
vt 0.849641 0.525359
vt 0.849641 0.724641
vt 0.650359 0.724641
vt 0.599641 0.500000
vt 0.875000 0.750000
vt 0.625000 0.750000
vt 0.875000 0.500000
vt 0.625000 0.500000
vn 0.0000 0.0000 1.0000
vn -1.0000 0.0000 0.0000
vn 0.0000 -1.0000 0.0000
vn 0.0000 1.0000 0.0000
vn 1.0000 0.0000 0.0000
vn 0.0000 0.0000 -1.0000
vn 0.0595 0.9964 0.0595
vn -0.0595 0.9964 0.0595
vn -0.5923 0.5461 0.5923
vn 0.5923 0.5461 0.5923
vn 0.0595 0.9964 -0.0595
vn 0.5923 0.5461 -0.5923
vn -0.0595 0.9964 -0.0595
vn -0.5923 0.5461 -0.5923
usemtl Material
s off
f 2/1/1 8/2/1 12/3/1 4/4/1
f 4/5/2 12/6/2 10/7/2 3/8/2
f 3/9/3 1/10/3 2/1/3 4/11/3
f 5/12/4 9/13/4 11/14/4 7/15/4
f 1/10/5 6/16/5 8/2/5 2/1/5
f 3/8/6 10/7/6 6/16/6 1/10/6
s 1
f 7/15/7 11/14/8 12/17/9 8/18/10
f 5/12/11 7/15/7 8/2/10 6/16/12
f 11/14/8 9/13/13 10/19/14 12/17/9
f 9/13/13 5/12/11 6/20/12 10/19/14
