<?xml version="1.0" encoding="UTF-8" standalone="no"?>
<svg
   xmlns:dc="http://purl.org/dc/elements/1.1/"
   xmlns:cc="http://creativecommons.org/ns#"
   xmlns:rdf="http://www.w3.org/1999/02/22-rdf-syntax-ns#"
   xmlns:svg="http://www.w3.org/2000/svg"
   xmlns="http://www.w3.org/2000/svg"
   xmlns:sodipodi="http://sodipodi.sourceforge.net/DTD/sodipodi-0.dtd"
   xmlns:inkscape="http://www.inkscape.org/namespaces/inkscape"
   viewBox="0 0 348 348"
   fill="none"
   version="1.1"
   id="svg835"
   sodipodi:docname="Dumb Waiters.svg"
   inkscape:version="0.92.5 (2060ec1f9f, 2020-04-08)">
  <metadata
     id="metadata841">
    <rdf:RDF>
      <cc:Work
         rdf:about="">
        <dc:format>image/svg+xml</dc:format>
        <dc:type
           rdf:resource="http://purl.org/dc/dcmitype/StillImage" />
      </cc:Work>
    </rdf:RDF>
  </metadata>
  <defs
     id="defs839" />
  <sodipodi:namedview
     pagecolor="#ffffff"
     bordercolor="#666666"
     borderopacity="1"
     objecttolerance="10"
     gridtolerance="10"
     guidetolerance="10"
     inkscape:pageopacity="0"
     inkscape:pageshadow="2"
     inkscape:window-width="1920"
     inkscape:window-height="1001"
     id="namedview837"
     showgrid="false"
     inkscape:zoom="3.3689168"
     inkscape:cx="239.4717"
     inkscape:cy="161.27451"
     inkscape:window-x="-9"
     inkscape:window-y="-9"
     inkscape:window-maximized="1"
     inkscape:current-layer="g823" />
  <path
     d="M5.079 5.776h336.913v337.67H5.08z"
     stroke-width="2"
     stroke="#000"
     id="path815" />
  <path
     d="M282.734 40.554c0-8.376 6.966-15.165 15.56-15.165 4.126 0 8.084 1.597 11.001 4.441 2.918 2.844 4.558 6.702 4.558 10.724 0 8.376-6.966 15.165-15.56 15.165-8.593 0-15.559-6.79-15.559-15.165z"
     stroke-width="2"
     stroke="#000"
     id="path817" />
  <g
     stroke="#000"
     stroke-width="2.056"
     id="g823">
    <path
       d="M 22.248,64.399391 H 145.664 V 264.09139 H 22.248 Z"
       id="path819"
       inkscape:connector-curvature="0" />
  </g>
  <g
     stroke="#000"
     stroke-width="2.056"
     id="g829">
    <path
       d="M 206.114,63.979609 H 329.53 V 263.67161 H 206.114 Z"
       id="path825"
       inkscape:connector-curvature="0" />
  </g>
  <g
     aria-label="[ Names ]"
     style="line-height:1.25;-inkscape-font-specification:Pakenham"
     font-weight="400"
     font-size="48"
     font-family="Pakenham"
     letter-spacing="0"
     word-spacing="0"
     fill="#000"
     id="g833">
    <path
       d="M93.445 324.125v-42.912h7.584v2.592h-4.704v37.776h4.704v2.544zM133.05 315.677l-10.224-22.416-2.832-6.48v28.896h-3.36V282.7h4.992l10.128 22.512 2.832 6.096-.336-6.96V282.7h3.312v32.976zM156.708 302.717l-1.344-.336q-.528-.144-1.152-.192-.624-.096-1.44-.096-.816-.048-2.16-.048-5.376 0-5.376 5.568 0 1.488.48 2.4.528.912 1.344 1.392.816.48 1.776.672.96.144 1.92.144 1.056 0 2.112-.192 1.056-.24 1.92-.624.864-.432 1.392-1.008.528-.576.528-1.296zm1.536 12.96l-1.824-1.968q-2.592 2.16-6.576 2.16-1.872 0-3.408-.432-1.536-.432-2.64-1.392-1.056-.96-1.632-2.496-.576-1.584-.576-3.84 0-4.656 2.256-6.864t5.856-2.208q1.824 0 3.6.24 1.776.192 3.456.72v-1.92q0-1.968-1.968-3.168-1.968-1.248-5.616-1.248-1.152 0-2.016.096-.864.096-1.536.336v-3.936q.24-.144 1.488-.192 1.296-.048 3.6-.048 4.416 0 7.056 2.304 2.688 2.304 2.688 6.432v17.424zM192.406 315.677V298.06q0-2.496-1.056-3.744-1.056-1.296-3.888-1.296-2.736 0-3.792 1.296-1.008 1.248-1.008 3.744v17.616h-3.84V298.06q0-1.248-.192-2.16-.192-.96-.768-1.584-.528-.672-1.488-.96-.912-.336-2.352-.336t-2.4.336q-.96.336-1.536.96-.528.624-.768 1.584-.192.96-.192 2.16v17.616h-3.648V289.9h3.648v2.208q1.104-1.44 2.496-1.968t3.216-.528q2.112 0 3.504.576 1.44.576 2.688 1.728 1.2-1.104 2.784-1.68 1.632-.576 3.504-.576 1.728 0 3.312.384 1.584.336 2.784 1.248 1.248.864 1.968 2.352.768 1.488.768 3.744v18.288zM215.88 301.853q-.096-2.928-.528-4.608-.384-1.728-1.104-2.592-.72-.912-1.728-1.152-.96-.24-2.208-.24-2.016 0-3.168.672-1.152.624-1.776 1.776-.624 1.152-.864 2.736-.192 1.536-.24 3.408zm.864 13.728q-1.152.288-4.992.288H210.6q-2.64 0-4.56-.672-1.872-.72-3.12-2.448-1.2-1.728-1.776-4.608-.576-2.928-.576-7.344 0-5.472 2.64-8.352 2.688-2.928 7.152-2.928 2.064 0 3.744.672 1.68.624 2.88 2.112 1.2 1.44 1.824 3.792.624 2.352.624 5.712v2.88H204.36q.048 2.112.48 3.552.48 1.44 1.392 2.304.912.864 2.256 1.248 1.392.336 3.264.336 1.2 0 2.448-.192t2.544-.528zM222.78 311.98q.288.193.624.289.384.048.96.096.624.048 1.488.096.912.048 2.208.144 2.88 0 3.984-.96t1.104-2.208q0-.96-.96-2.112-.96-1.152-3.36-3.024-1.344-1.056-2.4-1.968-1.056-.912-1.824-1.872-.72-.96-1.152-2.016-.384-1.104-.384-2.544 0-2.16.864-3.408.864-1.248 2.112-1.872 1.296-.672 2.784-.816 1.536-.192 2.832-.192 1.344 0 2.112.096t1.392.192v3.696q-1.824-.672-3.936-.672-.816 0-1.632.144-.768.144-1.392.528-.624.336-1.008.912-.384.576-.384 1.488 0 .528.576 1.392.576.816 1.44 1.824.864.96 1.92 1.968t2.016 1.968q1.008.912 1.776 1.632.768.72 1.056 1.104.672.912.912 1.92.288 1.008.288 2.208 0 2.688-2.256 4.416-2.256 1.728-6.96 1.728-1.536 0-2.784-.144-1.2-.096-2.016-.336zM250.894 324.125v-2.544h4.656v-37.776h-4.656v-2.592h7.44v42.912z"
       id="path831" />
  </g>
</svg>
